<svg width="202" height="100" viewBox="0 0 202 100" fill="none" xmlns="http://www.w3.org/2000/svg">
<path d="M59.4365 1C60.3001 14.025 65.7839 24.8004 76.499 32.6904C84.1661 38.3359 92.8936 40.8749 102.376 40.4883C122.519 39.6669 140.557 23.678 141.746 1.04297H200.188C200.193 1.46354 200.194 1.87647 200.176 2.30176C198.912 32.1537 186.936 56.7937 164.139 76.0811C150.59 87.5441 134.919 94.7942 117.401 97.5703C87.7192 102.274 60.9223 95.4039 37.5195 76.459C19.8572 62.1609 8.62381 43.6952 3.38867 21.3975C1.84929 14.6124 1.06552 7.89493 1.00586 1H59.4365Z" fill="#FC5B03" stroke="#1A1A1A" stroke-width="2"/>
<path d="M40.9621 32.795L38.0244 34.8308C36.9902 35.5494 37.4688 36.2538 36.9238 36.5048C36.6513 36.6303 36.4531 36.3913 36.2523 35.9554L35.357 34.0117C35.1645 33.5939 35.1033 33.2697 35.3939 33.1359C35.9207 32.8932 36.2287 33.8964 37.3174 33.1526L40.0902 31.2368C41.4081 30.3215 42.7246 29.4508 41.9534 27.8243C41.4164 26.7064 39.8665 25.923 37.7258 26.821L35.4453 27.8935C33.7015 28.6968 34.4217 29.3999 33.7859 29.6928C33.5135 29.8183 33.3153 29.5793 33.1145 29.1433L32.2191 27.1996C32.0183 26.7637 31.9571 26.4395 32.2477 26.3057C32.8653 26.0212 32.94 27.0437 34.6839 26.2404L37.2089 25.0773C38.8438 24.3242 39.9592 23.304 39.1949 21.7403C38.591 20.4771 36.9237 19.7257 34.7075 20.7466L32.6003 21.7172C30.8565 22.5205 31.5684 23.2055 30.9326 23.4984C30.6601 23.6239 30.4703 23.403 30.2611 22.9489L29.3657 21.0052C29.1733 20.5874 29.1037 20.2451 29.3944 20.1112C30.012 19.8267 30.095 20.8675 31.8389 20.0642L35.4901 18.3823C36.1078 18.0978 36.5284 17.8159 36.5932 17.1916C36.6283 16.9332 36.6787 16.7558 36.8603 16.6721C37.0602 16.5801 37.211 16.6207 37.6116 16.9646C38.1868 17.4484 38.6711 17.974 38.8064 18.2199C38.9152 18.4561 38.8829 18.6251 38.5741 18.7673L37.0217 19.4604C38.7006 19.5678 39.9069 20.4655 40.501 21.7552C41.1787 23.2266 40.957 24.5619 39.7689 25.6156C41.4758 25.6881 42.7268 26.5872 43.3292 27.8952C44.166 29.7117 43.5336 31.0159 40.9621 32.795ZM43.7677 43.0914C44.2543 43.1829 44.307 43.672 43.7782 43.774C42.7267 43.9502 40.6936 43.4494 39.3318 41.3291C37.8187 38.9732 38.5023 36.2997 40.7236 34.873C43.2647 33.241 46.3624 33.771 47.962 36.2616C49.1401 38.0958 48.8689 40.0052 47.6163 41.2376C47.3566 41.4994 47.0778 41.5835 46.6777 41.2937C44.8037 39.9302 43.0522 38.5355 41.159 36.9942C40.3883 37.9408 39.8601 39.6349 40.8652 41.1999C41.5894 42.3274 42.7391 42.8963 43.7677 43.0914ZM46.836 36.2479C45.8465 34.7442 43.9802 34.8732 42.7517 35.6622C42.331 35.9324 42.0221 36.1546 41.7901 36.4224C43.1307 37.5105 44.4113 38.5421 45.6715 39.4679C45.9454 39.6723 46.1785 39.6652 46.449 39.4202C47.3842 38.5818 47.4641 37.1518 46.836 36.2479ZM53.4265 50.1024L51.1309 52.8419C50.3361 53.8235 50.9709 54.3611 50.5116 54.7472C50.282 54.9402 50.0406 54.7773 49.7188 54.3946L48.3547 52.7718C48.0459 52.4043 47.9012 52.1079 48.1462 51.902C48.5902 51.5288 49.1522 52.415 50.0058 51.4101L52.174 48.8299C53.2162 47.6142 54.1916 46.3502 53.0052 44.9698C52.1534 43.9876 50.3775 43.6776 48.5097 45.2476L46.7337 46.7404C45.264 47.9758 46.1315 48.4484 45.5957 48.8988C45.3661 49.0918 45.1247 48.929 44.8029 48.5462L43.426 46.9081C43.13 46.5559 42.9724 46.2442 43.2174 46.0383C43.7379 45.6008 44.0929 46.5826 45.5627 45.3472L48.64 42.7605C49.1605 42.323 49.4918 41.94 49.3893 41.3208C49.3549 41.0623 49.3567 40.8779 49.5098 40.7492C49.6782 40.6076 49.8344 40.607 50.3116 40.8328C50.9941 41.1475 51.6001 41.5265 51.7956 41.7279C51.9628 41.927 51.9764 42.0985 51.7161 42.3172L50.4019 43.3958C52.0496 43.0559 53.5016 43.6643 54.3509 44.6747C55.6378 46.2057 55.4496 47.7225 53.4265 50.1024ZM56.0119 57.9574C56.4223 57.9592 56.4916 58.3815 56.143 58.5477C55.473 58.851 54.1323 58.9623 53.04 57.9343C51.8457 56.8102 51.9914 55.5466 53.2388 54.2213L53.65 53.7844C55.2538 52.0804 56.5432 50.7397 57.4367 49.8779L56.8833 49.357C56.592 49.0828 56.5578 48.8858 56.7497 48.6819C56.8456 48.58 56.9287 48.5208 57.1686 48.4994C58.2832 48.3949 59.247 48.4506 60.0703 48.5389C60.4258 48.5989 60.4986 48.6674 60.6006 48.7633C60.7899 48.9415 60.7248 49.1275 60.5046 49.3322C60.2013 49.5961 59.9263 49.8591 59.3634 50.4279L60.8198 51.7987C61.0674 52.0317 61.2576 52.2382 60.8558 52.5192C60.4403 52.8147 60.1798 52.6245 59.946 52.3769L58.6909 51.1133L54.9316 54.9907C53.9841 55.939 53.6517 56.6424 54.4527 57.3963C54.8459 57.7664 55.5304 57.9437 56.0119 57.9574ZM64.1187 63.0753C64.6062 62.9883 64.8288 63.427 64.3705 63.7098C63.4498 64.2474 61.3713 64.5 59.3461 63.0003C57.096 61.3339 56.7873 58.5917 58.3585 56.4701C60.1558 54.0432 63.2402 53.4405 65.6189 55.2021C67.3708 56.4994 67.7943 58.3809 67.0599 59.9774C66.91 60.3143 66.679 60.4917 66.2022 60.3626C63.9665 59.7522 61.8343 59.0691 59.5176 58.2991C59.1326 59.4575 59.2394 61.2289 60.7341 62.3358C61.811 63.1333 63.0878 63.2576 64.1187 63.0753ZM64.5612 55.5885C63.1028 54.5333 61.4035 55.3156 60.5346 56.4889C60.2371 56.8907 60.027 57.208 59.905 57.5408C61.5443 58.0828 63.1075 58.5934 64.614 59.0122C64.9426 59.1062 65.1581 59.0169 65.3241 58.6919C65.9013 57.5764 65.469 56.211 64.5612 55.5885ZM85.2537 68.7331L84.6042 72.2478C84.3768 73.4864 85.2128 73.6489 85.003 74.2111C84.8982 74.4921 84.5891 74.4622 84.1394 74.2944L82.1344 73.5464C81.7034 73.3856 81.4316 73.1987 81.5434 72.8989C81.7462 72.3555 82.6716 72.8502 82.92 71.5553L83.5371 68.2421C83.8271 66.6639 84.1475 65.1184 82.4541 64.5079C81.2853 64.0932 79.6336 64.6296 78.7477 66.7753L77.8855 69.1433C77.2143 70.9422 78.2209 70.9335 77.9762 71.5893C77.8713 71.8704 77.5623 71.8405 77.1126 71.6727L75.1076 70.9246C74.6578 70.7568 74.386 70.57 74.4979 70.2702C74.7356 69.6331 75.5092 70.306 76.1803 68.5071L77.1521 65.9025C77.7813 64.216 77.8537 62.7061 76.2095 62.1353C74.8908 61.6647 73.1784 62.3066 72.3255 64.5926L71.5145 66.7663C70.8433 68.5651 71.8311 68.5495 71.5864 69.2053C71.4816 69.4864 71.1913 69.4634 70.7228 69.2887L68.7178 68.5406C68.2868 68.3798 67.9963 68.186 68.1081 67.8862C68.3458 67.2491 69.1382 67.9289 69.8093 66.1301L71.2146 62.3637C71.4523 61.7266 71.5521 61.2302 71.158 60.7416C71.0008 60.5335 70.9116 60.3721 70.9815 60.1848C71.0584 59.9786 71.1941 59.9012 71.7207 59.8628C72.4697 59.8007 73.1837 59.8323 73.453 59.9115C73.6966 60.0023 73.7928 60.145 73.674 60.4635L73.061 62.0493C74.3278 60.9423 75.8162 60.7291 77.1467 61.2255C78.6645 61.7918 79.4481 62.8954 79.3478 64.4803C80.6099 63.3288 82.131 63.0852 83.4802 63.5886C85.354 64.2877 85.8245 65.6587 85.2537 68.7331ZM95.4416 74.8022C95.6595 74.8323 95.8351 74.8767 95.805 75.0947C95.7366 75.59 94.8765 76.1173 93.9849 75.9943C93.0537 75.8658 92.8755 75.2557 92.8284 74.2801C91.8541 75.1955 90.4105 75.5616 89.2614 75.403C86.8443 75.0695 85.6434 73.5308 85.8758 71.8468C86.1382 69.9448 88.0225 68.8723 90.4396 69.2059C91.2718 69.3207 91.8156 69.4765 92.5438 69.7587C92.3663 68.1191 92.2646 66.9542 90.5409 66.7164C89.4116 66.5605 88.6294 66.816 87.7316 67.1767C87.3224 67.3625 87.0464 67.0215 87.3586 66.6608C87.9298 66.033 89.4766 65.3581 91.2795 65.6069C93.4589 65.9077 94.1221 67.3923 94.2607 69.1679L94.5788 73.5929C94.6573 74.6334 95.0651 74.7503 95.4416 74.8022ZM89.8538 74.4753C91.2208 74.6639 92.7922 73.8107 92.754 72.9171C92.7377 72.4505 92.6502 71.9135 92.5922 71.0172C92.5786 70.5308 91.2956 70.172 90.6814 70.0872C88.9379 69.8466 87.8919 70.5502 87.7286 71.8804C87.6103 73.1764 88.3679 74.2702 89.8538 74.4753ZM98.3147 64.8673C97.7758 64.8147 97.3852 64.4055 97.4383 63.8466C97.4951 63.1277 98.4145 62.309 99.212 62.4276C99.7509 62.4802 100.119 62.989 100.087 63.4884C100.011 64.1868 99.0931 64.9455 98.3147 64.8673ZM97.9323 73.5207L98.0249 69.5618C98.0655 67.8223 97.0779 68.1393 97.0923 67.5195C97.097 67.3195 97.1793 67.2214 97.6644 67.0127C98.5739 66.6139 99.2589 66.4098 99.5393 66.3964C99.7997 66.3825 99.9373 66.4857 99.9289 66.8456L99.8444 69.6044L99.7518 73.5633C99.7069 75.4828 100.655 75.1448 100.639 75.8447C100.632 76.1446 100.33 76.2175 99.85 76.2063L97.7106 76.1563C97.2307 76.1451 96.9127 76.0576 96.9202 75.7377C96.9361 75.0579 97.8874 75.4402 97.9323 73.5207ZM103.72 76.2926C103.44 76.313 103.392 76.1962 103.112 75.6551C102.755 74.879 102.517 74.3748 102.22 73.5944C102.14 73.3195 102.187 73.1356 102.4 73.0398C102.594 72.9455 102.825 73.0891 103.104 73.3495C104.782 74.9119 105.887 75.2125 106.964 75.1341C107.862 75.0688 108.608 74.5733 108.544 73.6956C108.482 72.8379 107.325 72.3806 105.662 71.8399C103.877 71.288 102.21 70.7074 102.091 69.0718C101.959 67.2566 103.552 66.2784 105.068 66.168C106.126 66.0911 106.78 66.2641 107.3 66.2463C107.621 66.243 107.682 65.9779 107.941 65.959C108.2 65.9401 108.339 66.1908 108.607 66.5723C108.947 67.109 109.133 67.4565 109.318 67.8039C109.461 68.1144 109.48 68.3737 109.289 68.5079C108.983 68.7106 108.678 68.3719 107.962 67.9026C107.142 67.3808 106.13 66.9731 105.192 67.0414C104.115 67.1198 103.556 67.7019 103.607 68.4C103.67 69.2777 104.64 69.6483 106.529 70.2528C108.499 70.8715 110.11 71.5162 110.219 73.0123C110.326 74.4884 108.986 75.9094 106.792 76.0691C105.475 76.1649 104.849 75.8294 104.45 75.8585C104.131 75.8817 104.079 76.2665 103.72 76.2926ZM118.922 63.5583C121.361 62.8519 123.684 64.1158 124.457 66.7861C125.292 69.6678 123.969 72.5076 121.529 73.2139C119.627 73.7645 118.911 73.1599 118.258 73.3489C117.668 73.5406 117.451 74.2281 116.893 74.3894C116.624 74.4673 116.454 74.3085 116.428 74.0037C116.379 73.4764 116.248 72.9521 116.093 72.4142L113.612 63.846C113.123 62.1555 112.262 62.7793 112.09 62.1838C112.034 61.9917 112.102 61.8678 112.502 61.523C113.231 60.8749 113.842 60.4689 114.105 60.3718C114.35 60.2803 114.512 60.3374 114.612 60.6832L115.36 63.3399L116.183 66.1832C116.55 65.0775 117.481 63.9754 118.922 63.5583ZM121.304 72.363C122.937 71.8903 123.602 70.3028 122.956 68.0743C122.217 65.5192 120.273 64.4162 118.66 64.8833C116.796 65.4228 116.567 67.5088 116.834 68.4309L117.304 69.9814C117.782 71.6336 119.594 72.858 121.304 72.363ZM128.345 59.9383C129.326 59.4867 130.047 59.9037 130.339 60.5395C130.557 61.0119 130.449 61.5901 130.039 61.8006C129.285 62.17 128.953 61.3539 128.117 61.7387C127.318 62.1067 127.073 63.5843 127.809 65.183L128.905 67.5629C129.708 69.307 130.393 68.5953 130.686 69.2311C130.811 69.5036 130.59 69.6934 130.136 69.9025L128.192 70.7974C127.774 70.9898 127.432 71.0593 127.298 70.7686C127.014 70.1509 128.055 70.0681 127.252 68.324L125.571 64.6724C125.286 64.0547 125.005 63.634 124.38 63.5691C124.122 63.534 123.945 63.4835 123.861 63.3018C123.769 63.102 123.81 62.9512 124.154 62.5506C124.637 61.9756 125.163 61.4914 125.409 61.3561C125.645 61.2474 125.814 61.2797 125.956 61.5885L126.616 63.0684C126.686 61.7373 127.273 60.4318 128.345 59.9383ZM130.713 57.0168C130.228 57.2571 129.68 57.1163 129.43 56.6138C129.098 55.9736 129.445 54.7926 130.185 54.4716C130.67 54.2313 131.252 54.4684 131.489 54.909C131.793 55.5422 131.415 56.6716 130.713 57.0168ZM134.965 64.5636L132.95 61.1545C132.064 59.6566 131.394 60.4479 131.078 59.9142C130.976 59.742 130.994 59.6152 131.296 59.1816C131.857 58.3621 132.33 57.8267 132.561 57.667C132.775 57.5175 132.946 57.5324 133.129 57.8423L134.516 60.2285L136.531 63.6376C137.508 65.2905 138.134 64.5023 138.49 65.1049C138.643 65.3632 138.426 65.5847 138.012 65.8289L136.17 66.9178C135.757 67.162 135.441 67.2559 135.278 66.9804C134.932 66.395 135.941 66.2165 134.965 64.5636ZM139.56 61.6795L134.73 54.8561C133.716 53.4172 133.122 54.2759 132.765 53.769C132.65 53.6055 132.674 53.4661 132.94 53.0098C133.418 52.1597 133.847 51.5883 134.081 51.3992C134.282 51.2331 134.454 51.2343 134.661 51.5286L136.234 53.7966L141.048 60.6315C142.154 62.2012 142.698 61.3772 143.102 61.9495C143.274 62.1947 143.091 62.4214 142.683 62.7093L140.933 63.9416C140.557 64.2064 140.233 64.3368 140.049 64.0752C139.657 63.5192 140.666 63.2493 139.56 61.6795ZM148.231 50.4815L151.042 52.6891C152.048 53.4523 152.565 52.8008 152.966 53.2477C153.166 53.4711 153.011 53.7175 152.639 54.0512L151.06 55.4661C150.702 55.7864 150.411 55.9404 150.197 55.7021C149.81 55.2702 150.678 54.6803 149.647 53.859L146.999 51.7737C145.751 50.7705 144.456 49.8357 143.114 51.0652C142.16 51.9477 141.906 53.7326 143.535 55.5497L145.083 57.2774C146.364 58.7073 146.809 57.8252 147.276 58.3465C147.477 58.5699 147.321 58.8163 146.949 59.15L145.355 60.5782C145.013 60.8852 144.706 61.0526 144.493 60.8143C144.039 60.3079 145.009 59.9219 143.728 58.4921L138.133 52.2796C136.959 50.9689 136.469 51.891 136.055 51.4293C135.922 51.2804 135.93 51.1392 136.14 50.655C136.515 49.7549 136.875 49.1373 137.085 48.9221C137.265 48.7337 137.436 48.7148 137.676 48.9829L139.504 51.0516L141.559 53.3453C141.329 51.8597 141.868 50.5438 142.777 49.7296C144.266 48.3948 145.788 48.5348 148.231 50.4815ZM159.152 44.6822C159.295 44.5146 159.426 44.3904 159.594 44.533C159.975 44.8568 159.957 45.8657 159.374 46.5513C158.765 47.2674 158.155 47.0898 157.307 46.6051C157.555 47.9187 157.088 49.3328 156.337 50.2165C154.756 52.0754 152.813 52.2609 151.518 51.1597C150.055 49.916 150.164 47.7506 151.744 45.8917C152.288 45.2518 152.712 44.877 153.342 44.4146C151.864 43.6829 150.827 43.1425 149.699 44.4681C148.961 45.3366 148.756 46.1335 148.577 47.0844C148.514 47.5293 148.078 47.5788 147.942 47.1216C147.72 46.3025 147.982 44.6354 149.161 43.2489C150.586 41.5729 152.195 41.8116 153.766 42.6492L157.669 44.7597C158.588 45.2528 158.906 44.9717 159.152 44.6822ZM155.873 49.2183C156.767 48.1669 156.892 46.3833 156.118 45.9351C155.716 45.6981 155.216 45.4831 154.429 45.0502C154.011 44.8002 153.019 45.6893 152.617 46.1616C151.477 47.5024 151.508 48.7627 152.542 49.6154C153.571 50.4118 154.901 50.361 155.873 49.2183ZM161.735 33.0271L165.01 34.4581C166.176 34.9442 166.513 34.1837 167.013 34.5156C167.262 34.6816 167.174 34.9591 166.898 35.3756L165.725 37.1416C165.459 37.5415 165.215 37.7638 164.949 37.5867C164.466 37.2658 165.158 36.477 163.953 35.941L160.867 34.5873C159.407 33.9298 157.919 33.3499 156.929 34.8771C156.226 35.9711 156.429 37.7624 158.461 39.1123L160.394 40.3959C161.993 41.4581 162.203 40.4926 162.786 40.8799C163.036 41.0458 162.947 41.3233 162.671 41.7398L161.487 43.5225C161.232 43.9057 160.977 44.1446 160.711 43.9676C160.144 43.5914 160.987 42.9742 159.387 41.912L156.038 39.6879C155.472 39.3117 155.011 39.1017 154.446 39.3745C154.208 39.4803 154.03 39.5305 153.864 39.4199C153.68 39.2982 153.636 39.1485 153.718 38.6269C153.828 37.8834 154.021 37.1953 154.159 36.9509C154.303 36.7344 154.463 36.6731 154.747 36.8612L156.152 37.8184C155.361 36.3331 155.536 34.7686 156.266 33.669C157.373 32.003 158.881 31.7563 161.735 33.0271ZM168.7 28.3619C168.596 27.965 168.986 27.789 169.237 28.083C169.703 28.6521 170.156 29.9187 169.445 31.2392C168.667 32.683 167.408 32.8682 165.806 32.0049L165.278 31.7203C163.218 30.6103 161.59 29.7104 160.527 29.0694L160.166 29.7385C159.977 30.0906 159.795 30.1745 159.549 30.0417C159.425 29.9753 159.347 29.9103 159.264 29.684C158.876 28.6341 158.681 27.6886 158.554 26.8704C158.52 26.5114 158.567 26.4234 158.634 26.3001C158.757 26.0713 158.954 26.0862 159.208 26.2461C159.541 26.4711 159.866 26.6689 160.561 27.066L161.51 25.3053C161.671 25.006 161.822 24.769 162.197 25.0847C162.589 25.41 162.473 25.7106 162.294 26.0005L161.397 27.539L166.113 30.1709C167.273 30.8417 168.039 30.9815 168.56 30.0131C168.817 29.5377 168.811 28.8306 168.7 28.3619ZM171.953 19.2594C171.762 18.8025 172.142 18.4898 172.518 18.8757C173.242 19.6576 173.941 21.6315 172.917 23.9342C171.779 26.4927 169.17 27.39 166.758 26.3175C163.998 25.0906 162.739 22.2109 163.942 19.5062C164.827 17.5142 166.572 16.692 168.29 17.0618C168.651 17.1349 168.875 17.3218 168.852 17.8152C168.742 20.1302 168.539 22.3599 168.291 24.7885C169.505 24.9126 171.211 24.4234 171.967 22.7238C172.511 21.4994 172.355 20.2261 171.953 19.2594ZM164.549 20.4546C163.836 22.1075 164.969 23.5961 166.303 24.1892C166.76 24.3924 167.115 24.5285 167.466 24.5752C167.639 22.8573 167.798 21.2206 167.879 19.659C167.9 19.3178 167.766 19.1269 167.412 19.0355C166.198 18.7145 164.959 19.4332 164.549 20.4546Z" fill="#FFFFF3"/>
</svg>
