<svg width="129" height="100" viewBox="0 0 129 100" fill="none" xmlns="http://www.w3.org/2000/svg">
<path d="M105.37 1C106.116 1.08197 106.539 1.18786 107.358 1.32812L107.426 1.33984L107.493 1.3418C107.611 1.34576 107.693 1.35225 107.745 1.35742C107.763 1.35917 107.776 1.36022 107.784 1.36133L107.792 1.36328L107.816 1.36816C117.272 3.30068 124.328 8.24339 126.962 17.623C130.279 29.4373 125.466 40.5985 115.151 45.8047C113.621 46.5769 111.934 47.093 110.098 47.5605C108.302 48.0179 106.283 48.446 104.306 49.0146L104.503 50.9727C105.952 51.0878 106.924 51.0751 107.949 51.2559C120.961 53.5489 129.993 66.9284 127.438 80.1924C125.629 89.5772 118.113 96.9563 108.707 98.4863C106.733 98.8074 104.701 98.9477 102.683 98.9502C77.3983 98.9814 52.0984 98.9128 26.8076 99C17.4297 99.0323 9.93397 95.8893 4.89453 87.9072C4.31163 86.9839 3.84756 85.9613 3.38672 84.8428C2.95242 83.7886 2.50301 82.6074 1.9834 81.4463C0.769806 74.2229 1.61779 68.2643 4.36816 63.5117C7.04671 58.8833 11.6 55.277 18.1074 52.7695L18.7432 52.5303C19.1047 52.3975 20.2419 52.0427 21.2686 51.7002C21.5535 51.6051 23.1111 51.1458 24.6709 51.0312L24.748 49.0449C19.5478 48.2556 16.8963 47.3285 13.3633 46.043C11.0593 44.735 9.29514 44.1453 6.52539 40.7568C3.05926 36.5164 2.45188 33.8632 1.81445 31.3232C0.309795 25.3277 0.780482 19.4996 4.14551 13.5527C8.27052 6.26286 14.6113 2.23926 23.1631 1.13574C50.5946 1.0083 77.8275 1.02279 105.37 1Z" fill="#1463CC" stroke="#1A1A1A" stroke-width="2"/>
<path d="M29.9 33.2C28.38 33.2 27.68 32.94 27.08 32.94C26.62 32.94 26.5 33.18 26.18 33.18C25.8 33.18 25.6 32.92 25.46 32.08C25.34 31.44 25.16 30.58 25.02 29.28C24.98 28.88 25.04 28.58 25.36 28.58C25.64 28.58 25.86 28.78 26.1 29.26C26.68 30.6 27.76 32.22 30.1 32.24C32.04 32.24 32.92 31.1 32.98 29.84C33.08 28.16 31.24 27.5 29.52 26.68C27.5 25.7 25.32 24.88 25.32 22.44C25.32 20.58 26.94 18.84 30.02 18.84C30.9 18.84 31.62 19.06 32.18 19.06C32.64 19.06 32.76 18.84 33.08 18.84C33.46 18.84 33.56 19.06 33.76 19.9C33.9 20.48 34.08 21.18 34.24 22.16C34.3 22.54 34.24 22.82 33.92 22.82C33.64 22.82 33.4 22.62 33.14 22.18C32.5 21.16 31.36 19.78 29.58 19.78C27.94 19.78 27.08 20.68 27.08 21.9C27.08 23.44 28.54 23.98 30.44 24.92C32.58 25.96 34.8 26.7 34.88 29.08C34.96 31.62 32.54 33.18 29.9 33.2ZM46.2011 23.64L46.1811 26.4V30.38C46.1811 31.9 47.3611 31.44 47.3611 32.02C47.3611 32.22 47.2011 32.42 46.8611 32.6C46.3411 32.9 45.5611 33.2 45.0811 33.2C44.6011 33.2 44.4211 32.84 44.4011 32.16L44.3811 31.34C43.5011 32.58 42.1011 33.2 41.0011 33.2C39.0211 33.2 37.6211 32 37.6211 29.22V26.4C37.6211 24.64 36.6211 25 36.6211 24.38C36.6211 24.18 36.7211 24.08 37.2011 23.86C38.0811 23.44 38.7811 23.22 39.0611 23.2C39.3211 23.18 39.4611 23.28 39.4611 23.64L39.4411 26.4V29.02C39.4411 30.82 40.0411 32.04 41.5611 32C42.8411 31.98 44.3611 30.78 44.3611 28.82V26.4C44.3611 24.64 43.3611 25 43.3611 24.38C43.3611 24.18 43.4611 24.08 43.9411 23.86C44.8211 23.44 45.5011 23.22 45.8011 23.2C46.0611 23.18 46.2011 23.28 46.2011 23.64ZM57.8956 31.76C58.1156 31.76 58.2956 31.78 58.2956 32C58.2956 32.5 57.5156 33.14 56.6156 33.14C55.6756 33.14 55.4156 32.56 55.2356 31.6C54.3956 32.64 53.0156 33.2 51.8556 33.2C49.4156 33.2 48.0156 31.84 48.0156 30.14C48.0156 28.22 49.7356 26.9 52.1756 26.9C53.0156 26.9 53.5756 26.98 54.3356 27.16C53.9356 25.56 53.6756 24.42 51.9356 24.42C50.7956 24.42 50.0556 24.78 49.2156 25.26C48.8356 25.5 48.5156 25.2 48.7756 24.8C49.2556 24.1 50.6956 23.22 52.5156 23.22C54.7156 23.22 55.5756 24.6 55.9556 26.34L56.8756 30.68C57.0956 31.7 57.5156 31.76 57.8956 31.76ZM52.3156 32.2C53.6956 32.2 55.1356 31.14 54.9756 30.26C54.8956 29.8 54.7356 29.28 54.5556 28.4C54.4756 27.92 53.1556 27.74 52.5356 27.74C50.7756 27.74 49.8356 28.58 49.8556 29.92C49.9156 31.22 50.8156 32.2 52.3156 32.2ZM72.7961 19.24L72.7761 22L72.7561 30.38C72.7561 31.88 73.9561 31.44 73.9561 32.02C73.9561 32.22 73.7961 32.4 73.4361 32.6C72.9361 32.88 72.1561 33.2 71.6761 33.2C71.1961 33.2 71.0161 32.84 70.9961 32.16L70.9761 31.44C70.2761 32.44 69.0561 33.22 67.4761 33.2C64.8561 33.18 63.1961 31.14 63.1961 28.58C63.1961 25.46 65.5761 23.2 68.1761 23.2C69.1561 23.2 70.1961 23.5 70.9561 24.16V22C70.9561 20.26 69.9761 20.6 69.9761 19.98C69.9761 19.78 70.0561 19.68 70.5361 19.46C71.4361 19.04 72.1161 18.82 72.4161 18.8C72.6561 18.78 72.7961 18.88 72.7961 19.24ZM68.1561 31.92C69.8161 31.92 70.7961 30.58 70.9361 29.4V28.4C70.8961 27.58 70.7761 26.54 70.3161 25.78C69.7361 24.74 68.8761 24.18 67.7361 24.18C66.0161 24.18 64.9761 25.64 64.9761 27.64C64.9761 30.54 66.6761 31.92 68.1561 31.92ZM79.5953 33.2C76.8953 33.2 74.8953 31.4 74.8953 28.56C74.8953 25.54 77.0753 23.2 80.1753 23.2C82.8353 23.2 84.7753 25.26 84.7753 27.96C84.7753 30.92 82.6553 33.2 79.5953 33.2ZM80.2153 32.24C81.9153 32.24 82.9753 30.88 82.9753 28.96C82.9753 26.46 81.4753 24.22 79.4753 24.22C77.6953 24.22 76.7153 25.7 76.7153 27.6C76.7153 30.22 78.1753 32.24 80.2153 32.24ZM87.6434 33.2C87.3634 33.2 87.3234 33.08 87.0834 32.52C86.7834 31.72 86.5834 31.2 86.3434 30.4C86.2834 30.12 86.3434 29.94 86.5634 29.86C86.7634 29.78 86.9834 29.94 87.2434 30.22C88.8034 31.9 89.8834 32.28 90.9634 32.28C91.8634 32.28 92.6434 31.84 92.6434 30.96C92.6434 30.1 91.5234 29.56 89.9034 28.9C88.1634 28.22 86.5434 27.52 86.5434 25.88C86.5434 24.06 88.2034 23.2 89.7234 23.2C90.7834 23.2 91.4234 23.42 91.9434 23.44C92.2634 23.46 92.3434 23.2 92.6034 23.2C92.8634 23.2 92.9834 23.46 93.2234 23.86C93.5234 24.42 93.6834 24.78 93.8434 25.14C93.9634 25.46 93.9634 25.72 93.7634 25.84C93.4434 26.02 93.1634 25.66 92.4834 25.14C91.7034 24.56 90.7234 24.08 89.7834 24.08C88.7034 24.08 88.1034 24.62 88.1034 25.32C88.1034 26.2 89.0434 26.64 90.8834 27.38C92.8034 28.14 94.3634 28.9 94.3634 30.4C94.3634 31.88 92.9234 33.2 90.7234 33.2C89.4034 33.2 88.8034 32.82 88.4034 32.82C88.0834 32.82 88.0034 33.2 87.6434 33.2ZM104.256 30.42C104.596 30.06 105.036 30.28 104.836 30.78C104.416 31.76 102.896 33.2 100.376 33.2C97.5761 33.2 95.6961 31.18 95.6961 28.54C95.6961 25.52 97.8161 23.2 100.776 23.2C102.956 23.2 104.416 24.46 104.776 26.18C104.856 26.54 104.776 26.82 104.316 27C102.156 27.84 100.036 28.56 97.7161 29.32C98.0961 30.48 99.2361 31.84 101.096 31.84C102.436 31.84 103.536 31.18 104.256 30.42ZM100.156 24.14C98.3561 24.16 97.4561 25.8 97.4561 27.26C97.4561 27.76 97.4761 28.14 97.5761 28.48C99.2161 27.94 100.776 27.42 102.236 26.86C102.556 26.74 102.676 26.54 102.616 26.18C102.416 24.94 101.256 24.1 100.156 24.14Z" fill="#FFFFF3"/>
<path d="M47.3 65.24L47.28 68L47.26 76.38C47.26 77.88 48.46 77.44 48.46 78.02C48.46 78.22 48.3 78.4 47.94 78.6C47.44 78.88 46.66 79.2 46.18 79.2C45.7 79.2 45.52 78.84 45.5 78.16L45.48 77.44C44.78 78.44 43.56 79.22 41.98 79.2C39.36 79.18 37.7 77.14 37.7 74.58C37.7 71.46 40.08 69.2 42.68 69.2C43.66 69.2 44.7 69.5 45.46 70.16V68C45.46 66.26 44.48 66.6 44.48 65.98C44.48 65.78 44.56 65.68 45.04 65.46C45.94 65.04 46.62 64.82 46.92 64.8C47.16 64.78 47.3 64.88 47.3 65.24ZM42.66 77.92C44.32 77.92 45.3 76.58 45.44 75.4V74.4C45.4 73.58 45.28 72.54 44.82 71.78C44.24 70.74 43.38 70.18 42.24 70.18C40.52 70.18 39.48 71.64 39.48 73.64C39.48 76.54 41.18 77.92 42.66 77.92ZM50.9183 67.7C50.3783 67.66 49.9783 67.26 50.0183 66.7C50.0583 65.98 50.9583 65.14 51.7583 65.24C52.2983 65.28 52.6783 65.78 52.6583 66.28C52.5983 66.98 51.6983 67.76 50.9183 67.7ZM50.7383 76.36V72.4C50.7383 70.66 49.7583 71 49.7583 70.38C49.7583 70.18 49.8383 70.08 50.3183 69.86C51.2183 69.44 51.8983 69.22 52.1783 69.2C52.4383 69.18 52.5783 69.28 52.5783 69.64L52.5583 72.4V76.36C52.5583 78.28 53.4983 77.92 53.4983 78.62C53.4983 78.92 53.1983 79 52.7183 79H50.5783C50.0983 79 49.7783 78.92 49.7783 78.6C49.7783 77.92 50.7383 78.28 50.7383 76.36ZM58.5009 68.08C58.2609 68 58.2409 67.84 58.2809 67.72C58.3809 67.5 58.9209 66.98 59.6409 66.32C60.3609 65.72 60.8409 65.3 61.3809 65.48C61.7809 65.64 62.0409 66.08 61.8409 66.6C61.5409 67.44 59.3609 68.4 58.5009 68.08ZM64.8409 77.76C65.0609 77.76 65.2409 77.78 65.2409 78C65.2409 78.5 64.4609 79.14 63.5609 79.14C62.6209 79.14 62.3609 78.56 62.1809 77.6C61.3409 78.64 59.9609 79.2 58.8009 79.2C56.3609 79.2 54.9609 77.84 54.9609 76.14C54.9609 74.22 56.6809 72.9 59.1209 72.9C59.9609 72.9 60.5209 72.98 61.2809 73.16C60.8809 71.56 60.6209 70.42 58.8809 70.42C57.7409 70.42 57.0009 70.78 56.1609 71.26C55.7809 71.5 55.4609 71.2 55.7209 70.8C56.2009 70.1 57.6409 69.22 59.4609 69.22C61.6609 69.22 62.5209 70.6 62.9009 72.34L63.8209 76.68C64.0409 77.7 64.4609 77.76 64.8409 77.76ZM59.2609 78.2C60.6409 78.2 62.0809 77.14 61.9209 76.26C61.8409 75.8 61.6809 75.28 61.5009 74.4C61.4209 73.92 60.1009 73.74 59.4809 73.74C57.7209 73.74 56.7809 74.58 56.8009 75.92C56.8609 77.22 57.7609 78.2 59.2609 78.2ZM71.937 69.2C73.017 69.2 73.497 69.88 73.497 70.58C73.497 71.1 73.157 71.58 72.697 71.6C71.857 71.62 71.897 70.74 70.977 70.74C70.097 70.74 69.257 71.98 69.257 73.74V76.36C69.257 78.28 70.177 77.92 70.177 78.62C70.177 78.92 69.897 79 69.397 79H67.257C66.797 79 66.457 78.92 66.457 78.6C66.457 77.92 67.437 78.28 67.437 76.36V72.34C67.437 71.66 67.357 71.16 66.817 70.84C66.597 70.7 66.457 70.58 66.457 70.38C66.457 70.16 66.557 70.04 67.037 69.82C67.717 69.5 68.397 69.28 68.677 69.26C68.937 69.26 69.077 69.36 69.077 69.7L69.057 71.32C69.677 70.14 70.757 69.2 71.937 69.2ZM76.4847 67.7C75.9447 67.66 75.5447 67.26 75.5847 66.7C75.6247 65.98 76.5247 65.14 77.3247 65.24C77.8647 65.28 78.2447 65.78 78.2247 66.28C78.1647 66.98 77.2647 67.76 76.4847 67.7ZM76.3047 76.36V72.4C76.3047 70.66 75.3247 71 75.3247 70.38C75.3247 70.18 75.4047 70.08 75.8847 69.86C76.7847 69.44 77.4647 69.22 77.7447 69.2C78.0047 69.18 78.1447 69.28 78.1447 69.64L78.1247 72.4V76.36C78.1247 78.28 79.0647 77.92 79.0647 78.62C79.0647 78.92 78.7647 79 78.2847 79H76.1447C75.6647 79 75.3447 78.92 75.3447 78.6C75.3447 77.92 76.3047 78.28 76.3047 76.36ZM90.4073 77.76C90.6273 77.76 90.8073 77.78 90.8073 78C90.8073 78.5 90.0273 79.14 89.1273 79.14C88.1873 79.14 87.9273 78.56 87.7473 77.6C86.9073 78.64 85.5273 79.2 84.3673 79.2C81.9273 79.2 80.5273 77.84 80.5273 76.14C80.5273 74.22 82.2473 72.9 84.6873 72.9C85.5273 72.9 86.0873 72.98 86.8473 73.16C86.4473 71.56 86.1873 70.42 84.4473 70.42C83.3073 70.42 82.5673 70.78 81.7273 71.26C81.3473 71.5 81.0273 71.2 81.2873 70.8C81.7673 70.1 83.2073 69.22 85.0273 69.22C87.2273 69.22 88.0873 70.6 88.4673 72.34L89.3873 76.68C89.6073 77.7 90.0273 77.76 90.4073 77.76ZM84.8273 78.2C86.2073 78.2 87.6473 77.14 87.4873 76.26C87.4073 75.8 87.2473 75.28 87.0673 74.4C86.9873 73.92 85.6673 73.74 85.0473 73.74C83.2873 73.74 82.3473 74.58 82.3673 75.92C82.4273 77.22 83.3273 78.2 84.8273 78.2Z" fill="#FFFFF3"/>
</svg>
