<svg width="200" height="100" viewBox="0 0 200 100" fill="none" xmlns="http://www.w3.org/2000/svg">
<path d="M99.9288 1C154.232 1.00013 198.314 44.7526 198.851 98.9287H1.00595C1.54234 44.7525 45.6258 1 99.9288 1Z" fill="#1463CC" stroke="#1A1A1A" stroke-width="2"/>
<path d="M72.0447 62.5715C72.4136 62.181 72.8908 62.4196 72.6739 62.962C72.2183 64.025 70.5695 65.5871 67.8359 65.5871C64.7986 65.5871 62.7593 63.3959 62.7593 60.5322C62.7593 57.2562 65.059 54.7396 68.2698 54.7396C70.6346 54.7396 72.2183 56.1064 72.6088 57.9722C72.6956 58.3627 72.6088 58.6664 72.1098 58.8616C69.7668 59.7728 67.4671 60.5538 64.9505 61.3783C65.3627 62.6366 66.5993 64.1118 68.6169 64.1118C70.0705 64.1118 71.2637 63.3959 72.0447 62.5715ZM67.5973 55.7593C65.6447 55.781 64.6685 57.5599 64.6685 59.1437C64.6685 59.686 64.6902 60.0983 64.7986 60.4671C66.5776 59.8813 68.2698 59.3172 69.8536 58.7098C70.2007 58.5796 70.3308 58.3627 70.2658 57.9722C70.0488 56.6271 68.7905 55.7159 67.5973 55.7593ZM84.9834 59.2955L85.6559 63.1138C85.9163 64.4589 86.8058 64.3071 86.8058 64.9579C86.8058 65.2833 86.502 65.3701 85.9597 65.3701H83.66C83.1393 65.3701 82.7922 65.2833 82.7922 64.9362C82.7922 64.3071 83.9203 64.4589 83.6817 63.0488L83.0525 59.4474C82.7705 57.7335 82.4017 56.0413 80.4275 56.063C79.0173 56.0847 77.5203 57.343 77.5203 59.9898V62.5064C77.5203 64.5891 78.5183 64.1986 78.5183 64.9579C78.5183 65.2833 78.2146 65.3701 77.6722 65.3701H75.3508C74.8519 65.3701 74.483 65.2833 74.483 64.9362C74.483 64.1986 75.5461 64.5891 75.5461 62.5064V58.1457C75.5461 57.4081 75.4593 56.8657 74.8736 56.5186C74.6349 56.3667 74.483 56.2366 74.483 56.0196C74.483 55.781 74.5915 55.6508 75.1122 55.4122C75.8498 55.065 76.5875 54.8264 76.8912 54.8047C77.1732 54.8047 77.3251 54.9132 77.3251 55.282L77.3034 57.126C78.1712 55.5206 79.6898 54.7396 81.1217 54.7396C83.2912 54.7396 84.4193 55.9545 84.9834 59.2955ZM96.9388 62.5715C97.3076 62.181 97.7849 62.4196 97.568 62.962C97.1124 64.025 95.4636 65.5871 92.73 65.5871C89.6927 65.5871 87.6534 63.3959 87.6534 60.5322C87.6534 57.2562 89.953 54.7396 93.1639 54.7396C95.5286 54.7396 97.1124 56.1064 97.5029 57.9722C97.5897 58.3627 97.5029 58.6664 97.0039 58.8616C94.6608 59.7728 92.3612 60.5538 89.8446 61.3783C90.2568 62.6366 91.4934 64.1118 93.511 64.1118C94.9646 64.1118 96.1578 63.3959 96.9388 62.5715ZM92.4914 55.7593C90.5388 55.781 89.5625 57.5599 89.5625 59.1437C89.5625 59.686 89.5842 60.0983 89.6927 60.4671C91.4717 59.8813 93.1639 59.3172 94.7476 58.7098C95.0947 58.5796 95.2249 58.3627 95.1598 57.9722C94.9429 56.6271 93.6846 55.7159 92.4914 55.7593ZM105.322 54.7396C106.493 54.7396 107.014 55.4772 107.014 56.2366C107.014 56.8006 106.645 57.3213 106.146 57.343C105.235 57.3647 105.278 56.4101 104.28 56.4101C103.326 56.4101 102.414 57.7552 102.414 59.6644V62.5064C102.414 64.5891 103.412 64.1986 103.412 64.9579C103.412 65.2833 103.109 65.3701 102.566 65.3701H100.245C99.7459 65.3701 99.3771 65.2833 99.3771 64.9362C99.3771 64.1986 100.44 64.5891 100.44 62.5064V58.1457C100.44 57.4081 100.353 56.8657 99.7676 56.5186C99.529 56.3667 99.3771 56.2366 99.3771 56.0196C99.3771 55.781 99.4856 55.6508 100.006 55.4122C100.744 55.065 101.482 54.8264 101.785 54.8047C102.067 54.8047 102.219 54.9132 102.219 55.282L102.197 57.0393C102.87 55.7593 104.042 54.7396 105.322 54.7396ZM116.416 63.8949C118.542 63.8949 119.627 64.9796 119.627 66.3247C119.627 68.4508 117.457 69.9694 113.487 69.9694C111.057 69.9694 108.627 69.1667 108.627 67.2359C108.627 66.5633 109.083 65.7172 110.081 65.2833C109.387 64.9362 108.736 64.3288 108.736 63.3959C108.736 62.7884 109.17 61.9857 110.45 61.5084C109.474 60.8793 108.953 59.9247 108.953 58.8183C108.953 56.4752 111.122 54.7613 113.899 54.7396H114.095C114.767 54.7613 115.006 54.8264 115.44 54.8264C115.939 54.8264 116.568 54.3925 117.088 53.6115C117.305 53.3511 117.522 53.1342 117.826 53.1342C118.217 53.1342 118.607 53.4379 118.607 53.9152C118.607 54.7613 117.761 55.4122 116.806 55.6508C117.609 56.3016 118.043 57.2128 118.043 58.1891C118.043 60.4888 116.156 62.2244 113.248 62.246C112.446 62.246 111.752 62.1159 111.166 61.8772C110.884 62.0725 110.602 62.3762 110.602 62.7667C110.602 63.7864 111.903 64.0467 113.14 64.0467C114.355 64.0467 115.657 63.8949 116.416 63.8949ZM113.422 55.6074C112.012 55.6074 110.927 56.6488 110.927 58.2108C110.949 59.9247 111.99 61.3566 113.617 61.3566C115.114 61.3566 116.025 60.2067 116.025 58.7315C116.004 57.1044 115.114 55.6074 113.422 55.6074ZM114.008 69.0583C116.134 69.0583 117.696 68.364 117.696 67.0189C117.696 66.3464 117.327 65.522 115.592 65.6305C114.745 65.6738 113.704 65.7389 112.316 65.7389C111.448 65.7389 110.515 66.2162 110.515 67.1491C110.515 68.3857 111.925 69.0583 114.008 69.0583ZM122.183 53.1125C121.597 53.0691 121.163 52.6352 121.206 52.0277C121.25 51.2467 122.226 50.3355 123.094 50.444C123.679 50.4874 124.092 51.0298 124.07 51.5722C124.005 52.3315 123.029 53.1776 122.183 53.1125ZM121.987 62.5064V58.2108C121.987 56.3233 120.924 56.6922 120.924 56.0196C120.924 55.8027 121.011 55.6942 121.532 55.4555C122.508 54.9999 123.246 54.7613 123.549 54.7396C123.831 54.7179 123.983 54.8264 123.983 55.2169L123.962 58.2108V62.5064C123.962 64.5891 124.981 64.1986 124.981 64.9579C124.981 65.2833 124.656 65.3701 124.135 65.3701H121.814C121.293 65.3701 120.946 65.2833 120.946 64.9362C120.946 64.1986 121.987 64.5891 121.987 62.5064ZM137.285 64.025C137.524 64.025 137.719 64.0467 137.719 64.2854C137.719 64.8277 136.873 65.522 135.897 65.522C134.877 65.522 134.595 64.8928 134.4 63.8515C133.488 64.9796 131.992 65.5871 130.733 65.5871C128.086 65.5871 126.568 64.1118 126.568 62.2677C126.568 60.185 128.434 58.7532 131.08 58.7532C131.992 58.7532 132.599 58.8399 133.423 59.0352C132.989 57.2996 132.707 56.063 130.82 56.063C129.583 56.063 128.781 56.4535 127.869 56.9742C127.457 57.2345 127.11 56.9091 127.392 56.4752C127.913 55.7159 129.475 54.7613 131.449 54.7613C133.836 54.7613 134.768 56.2583 135.181 58.1457L136.179 62.8535C136.417 63.9599 136.873 64.025 137.285 64.025ZM131.232 64.5023C132.729 64.5023 134.291 63.3525 134.118 62.3979C134.031 61.8989 133.857 61.3349 133.662 60.3803C133.575 59.8596 132.143 59.6644 131.471 59.6644C129.562 59.6644 128.542 60.5755 128.564 62.0291C128.629 63.4393 129.605 64.5023 131.232 64.5023Z" fill="#FFFFF3"/>
</svg>
