<svg width="202" height="100" viewBox="0 0 202 100" fill="none" xmlns="http://www.w3.org/2000/svg">
<path d="M59.4365 1C60.3001 14.025 65.7839 24.8004 76.499 32.6904C84.1661 38.3359 92.8936 40.8749 102.376 40.4883C122.519 39.6669 140.557 23.678 141.746 1.04297H200.188C200.193 1.46354 200.194 1.87647 200.176 2.30176C198.912 32.1537 186.936 56.7937 164.139 76.0811C150.59 87.5441 134.919 94.7942 117.401 97.5703C87.7192 102.274 60.9223 95.4039 37.5195 76.459C19.8572 62.1609 8.62381 43.6952 3.38867 21.3975C1.84929 14.6124 1.06552 7.89493 1.00586 1H59.4365Z" fill="#9DC8FF" stroke="#1A1A1A" stroke-width="2"/>
<path d="M38.0789 39.3088C37.2825 38.0142 37.1373 37.2817 36.8229 36.7706C36.5819 36.3788 36.3146 36.4023 36.147 36.1298C35.9479 35.8061 36.0646 35.4995 36.7067 34.9402C37.189 34.5027 37.8272 33.8988 38.8611 33.0985C39.1809 32.8548 39.4679 32.7488 39.6355 33.0213C39.7822 33.2598 39.7271 33.552 39.444 34.0079C38.6065 35.204 37.7925 36.9726 39.0014 38.9762C40.0178 40.6287 41.4498 40.781 42.5545 40.172C44.0379 39.377 43.636 37.4639 43.4334 35.5693C43.2098 33.3353 42.7661 31.0488 44.8445 29.7704C46.4288 28.796 48.7596 29.2642 50.3732 31.8877C50.8343 32.6373 51.0241 33.3658 51.3175 33.8428C51.5585 34.2346 51.8087 34.2216 51.9764 34.4941C52.1755 34.8178 52.0405 35.0182 51.4298 35.6287C51.0091 36.0518 50.5071 36.5719 49.7562 37.2216C49.464 37.4718 49.1941 37.5674 49.0264 37.2948C48.8797 37.0563 48.9243 36.7471 49.1629 36.2951C49.6964 35.2156 50.2746 33.5216 49.342 32.0054C48.4828 30.6085 47.2657 30.3475 46.2265 30.9867C44.9148 31.7935 45.2197 33.32 45.4145 35.4308C45.6498 37.7985 46.1826 40.0771 44.1973 41.3922C42.0757 42.791 39.479 41.5471 38.0789 39.3088ZM55.1664 46.4572L53.0023 48.1703L49.8996 50.663C48.7147 51.615 49.8123 52.2468 49.3602 52.6101C49.2043 52.7353 48.9482 52.7358 48.5949 52.5835C48.0353 52.3661 47.3129 51.9459 47.0123 51.5717C46.7117 51.1975 46.8796 50.8317 47.3972 50.3902L48.0239 49.861C46.506 49.9517 45.1459 49.2486 44.4569 48.3911C43.2168 46.8475 43.2754 45.0045 45.4426 43.2634L47.641 41.4972C49.0131 40.3948 48.1061 39.8407 48.5894 39.4524C48.7453 39.3272 48.8859 39.3425 49.3581 39.5789C50.2367 40.0019 50.8466 40.4098 51.0375 40.6155C51.216 40.8057 51.2257 40.9774 50.9451 41.2029L48.7809 42.916L46.7385 44.5569C45.3352 45.6843 44.76 46.9161 45.7431 48.076C46.5604 49.0614 48.4479 49.4947 49.9759 48.2671L51.8624 46.7514C53.2344 45.6491 52.3275 45.095 52.8108 44.7067C52.9667 44.5814 53.1073 44.5968 53.5795 44.8332C54.458 45.2561 55.0554 45.6485 55.2589 45.8698C55.4374 46.06 55.4471 46.2317 55.1664 46.4572ZM57.0695 59.5806C57.2291 59.732 57.3459 59.8704 57.1945 60.03C56.8503 60.3927 55.844 60.3201 55.1911 59.7007C54.5092 59.0537 54.7198 58.454 55.25 57.6337C53.9248 57.8099 52.5382 57.2663 51.6967 56.4679C49.9267 54.7885 49.8472 52.8383 51.0173 51.605C52.3388 50.2122 54.4951 50.4385 56.2651 52.118C56.8745 52.6961 57.2257 53.1396 57.6531 53.7933C58.4642 52.3573 59.0603 51.3513 57.798 50.1537C56.971 49.369 56.1864 49.1209 55.2467 48.8909C54.8058 48.8034 54.7802 48.3656 55.2441 48.2543C56.0741 48.0769 57.7244 48.4297 59.0447 49.6824C60.6407 51.1966 60.3147 52.7897 59.3927 54.3135L57.0729 58.0951C56.5304 58.9864 56.7938 59.319 57.0695 59.5806ZM52.7187 56.0591C53.7198 57.0089 55.494 57.2311 55.9837 56.4826C56.2423 56.0939 56.4841 55.6065 56.9592 54.8442C57.2316 54.441 56.3979 53.4018 55.9481 52.9751C54.6714 51.7637 53.4113 51.7261 52.5035 52.7119C51.6522 53.6963 51.6306 55.0267 52.7187 56.0591ZM77.7682 66.5153L76.6672 69.9157C76.2808 71.1144 77.0886 71.3841 76.8075 71.9142C76.667 72.1793 76.3645 72.1094 75.9404 71.8846L74.0496 70.8823C73.6432 70.6668 73.398 70.4463 73.5478 70.1635C73.8195 69.6511 74.6728 70.2619 75.0873 69.0103L76.1299 65.8053C76.6226 64.2782 77.1412 62.7875 75.5415 61.9621C74.4365 61.3989 72.7291 61.7161 71.5718 63.7284L70.4091 65.9643C69.5098 67.6607 70.5089 67.7829 70.1811 68.4014C70.0406 68.6664 69.738 68.5966 69.3139 68.3718L67.4232 67.3694C66.9991 67.1446 66.7538 66.924 66.9037 66.6413C67.2222 66.0405 67.9018 66.8082 68.8011 65.1118L70.1032 62.6556C70.9463 61.0653 71.2143 59.5776 69.6583 58.7979C68.412 58.1599 66.6306 58.5737 65.4878 60.7295L64.4011 62.7793C63.5018 64.4757 64.4833 64.5885 64.1554 65.207C64.0149 65.472 63.7301 65.4116 63.2883 65.1774L61.3975 64.1751C60.9911 63.9596 60.7282 63.7297 60.8781 63.4469C61.1966 62.8461 61.8938 63.6232 62.7931 61.9269L64.676 58.3751C64.9945 57.7743 65.158 57.295 64.8308 56.7594C64.702 56.5327 64.6345 56.3611 64.7282 56.1843C64.8312 55.99 64.9758 55.9308 65.5029 55.9612C66.2536 55.997 66.9574 56.1211 67.2142 56.2346C67.4439 56.3564 67.5208 56.5103 67.3615 56.8107L66.5476 58.3033C67.9476 57.3704 69.4511 57.3526 70.7057 58.0177C72.137 58.7764 72.7706 59.9725 72.4651 61.5309C73.8662 60.5533 75.4061 60.5094 76.6784 61.1839C78.4454 62.1207 78.7337 63.5411 77.7682 66.5153ZM86.239 72.1682C86.661 71.9091 87.0286 72.2361 86.7053 72.6668C86.0446 73.5036 84.2022 74.4983 81.7691 73.8422C79.0656 73.1132 77.7764 70.6734 78.4637 68.1245C79.2499 65.2086 81.9008 63.5206 84.7587 64.2912C86.8635 64.8587 87.9452 66.4554 87.845 68.2098C87.8285 68.5782 87.6783 68.8277 87.1873 68.8818C84.8831 69.1304 82.6488 69.2737 80.2109 69.4035C80.2758 70.6224 81.0225 72.2323 82.8183 72.7165C84.1121 73.0654 85.346 72.7145 86.239 72.1682ZM83.9154 65.0373C82.1722 64.588 80.8763 65.9372 80.4962 67.3468C80.366 67.8296 80.2864 68.2017 80.2945 68.556C82.0185 68.4616 83.6601 68.3656 85.2155 68.2051C85.5557 68.1725 85.7237 68.0107 85.7594 67.6474C85.8892 66.3981 84.9879 65.2851 83.9154 65.0373ZM89.0482 72.6518L90.2563 64.3795C90.5148 62.6386 89.4926 62.8508 89.5836 62.2375C89.613 62.0397 89.7266 61.9554 90.2337 61.8083C91.1659 61.5221 91.8708 61.4044 92.1705 61.4287C92.4306 61.4471 92.5544 61.5665 92.5015 61.9226L92.0764 64.6498L90.8485 72.9191C90.5665 74.8183 91.5294 74.5973 91.4266 75.2897C91.3825 75.5865 91.0938 75.6245 90.5992 75.551L88.4825 75.2367C88.0274 75.1692 87.7029 75.0401 87.7499 74.7236C87.8498 74.051 88.7663 74.551 89.0482 72.6518ZM103.041 70.5037L103.56 74.0399C103.764 75.2863 104.588 75.1697 104.571 75.7695C104.562 76.0693 104.28 76.1413 103.78 76.1271L101.661 76.0666C101.181 76.0529 100.864 75.9638 100.873 75.6439C100.89 75.0642 101.925 75.2338 101.742 73.928L101.257 70.5928C101.042 69.006 100.747 67.437 98.9272 67.405C97.6272 67.3879 96.2147 68.5081 96.1451 70.9471L96.0789 73.2662C96.0241 75.1854 96.954 74.8518 96.934 75.5515C96.9255 75.8514 96.6433 75.9234 96.1435 75.9091L94.0044 75.848C93.5445 75.8349 93.207 75.7452 93.2161 75.4254C93.2355 74.7456 94.2048 75.1335 94.2596 73.2142L94.4781 64.8571C94.5283 63.0978 93.5385 63.4297 93.5562 62.8099C93.5619 62.61 93.6647 62.5129 94.1508 62.3067C95.0424 61.912 95.7284 61.7115 96.0288 61.7C96.2893 61.6875 96.4264 61.7914 96.4161 62.1513L96.3174 64.9096L96.2295 67.9883C97.0851 66.7522 98.3823 66.169 99.6018 66.2038C101.601 66.2609 102.609 67.4101 103.041 70.5037ZM110.011 75.6716C107.332 76.0106 105.122 74.476 104.765 71.6585C104.386 68.6624 106.255 66.0672 109.331 65.6779C111.969 65.3438 114.153 67.1439 114.492 69.8225C114.864 72.7591 113.047 75.2873 110.011 75.6716ZM110.505 74.6413C112.192 74.4278 113.073 72.9455 112.832 71.0407C112.518 68.5605 110.748 66.5266 108.764 66.7777C106.998 67.0012 106.212 68.5926 106.45 70.4776C106.779 73.0768 108.482 74.8975 110.505 74.6413ZM119.497 63.5601C120.538 63.2729 121.181 63.8009 121.367 64.4757C121.506 64.9769 121.305 65.5301 120.867 65.6716C120.063 65.9142 119.867 65.0553 118.981 65.2999C118.132 65.5338 117.652 66.9525 118.12 68.6492L118.817 71.1749C119.327 73.0258 120.118 72.4342 120.304 73.109C120.384 73.3982 120.136 73.5497 119.654 73.6827L117.591 74.2516C117.147 74.3739 116.798 74.3872 116.713 74.0787C116.532 73.4232 117.573 73.5097 117.062 71.6588L115.993 67.7835C115.813 67.1279 115.603 66.6672 114.997 66.5023C114.748 66.4258 114.581 66.3473 114.528 66.1545C114.469 65.9425 114.534 65.8002 114.938 65.4605C115.508 64.9712 116.105 64.5784 116.37 64.4846C116.621 64.4155 116.782 64.4747 116.872 64.8024L117.284 66.3695C117.568 65.0671 118.359 63.8738 119.497 63.5601ZM136.798 65.1206C136.994 65.0206 137.163 64.9565 137.263 65.1525C137.49 65.5978 137.087 66.5225 136.285 66.9316C135.448 67.359 134.952 66.9606 134.356 66.1874C134.08 67.4956 133.106 68.6217 132.073 69.1491C129.899 70.2584 128.034 69.6835 127.261 68.1694C126.388 66.4593 127.32 64.5016 129.493 63.3923C130.242 63.0104 130.777 62.8271 131.536 62.6419C130.452 61.3987 129.702 60.5015 128.152 61.2925C127.137 61.8108 126.641 62.4679 126.111 63.2773C125.882 63.6638 125.461 63.5421 125.51 63.0676C125.62 62.2259 126.502 60.7875 128.123 59.96C130.083 58.9599 131.476 59.798 132.606 61.1751L135.398 64.6224C136.058 65.4308 136.459 65.2933 136.798 65.1206ZM132.028 68.0493C133.257 67.4219 134.057 65.8231 133.515 65.1121C133.234 64.7387 132.856 64.3483 132.295 63.6463C132.006 63.2552 130.748 63.695 130.196 63.9768C128.628 64.777 128.173 65.9525 128.8 67.1369C129.444 68.2675 130.692 68.7312 132.028 68.0493ZM147.913 50.7261L150.6 53.083C151.548 53.9123 152.115 53.2773 152.491 53.7452C152.678 53.9792 152.494 54.2294 152.12 54.5298L150.451 55.8694C150.093 56.1574 149.793 56.2953 149.593 56.0458C149.23 55.5935 150.128 55.0516 149.143 54.1755L146.612 51.9495C145.405 50.8927 144.241 49.8263 142.85 50.9687C141.896 51.7605 141.511 53.4541 142.901 55.3134L144.494 57.266C145.696 58.7633 146.204 57.8942 146.642 58.4401C146.83 58.674 146.646 58.9242 146.271 59.2247L144.602 60.5643C144.228 60.8647 143.928 61.0027 143.728 60.7531C143.303 60.2228 144.277 59.9026 143.075 58.4053L141.334 56.2374C140.208 54.8337 138.948 53.9986 137.616 55.119C136.536 56.011 136.211 57.8107 137.739 59.7135L139.191 61.5227C140.393 63.02 140.885 62.1633 141.323 62.7092C141.511 62.9432 141.343 63.1809 140.953 63.4938L139.284 64.8334C138.925 65.1214 138.61 65.2718 138.41 65.0223C137.984 64.492 138.974 64.1593 137.772 62.662L135.255 59.527C134.83 58.9967 134.454 58.6569 133.833 58.7454C133.574 58.7739 133.389 58.7679 133.264 58.612C133.126 58.4404 133.129 58.2842 133.366 57.8122C133.696 57.137 134.088 56.5398 134.294 56.3489C134.497 56.1861 134.669 56.1765 134.882 56.4416L135.93 57.7799C135.628 56.1249 136.206 54.7372 137.314 53.8483C138.577 52.8342 139.926 52.7258 141.236 53.6232C140.893 51.9496 141.462 50.5181 142.585 49.6167C144.145 48.3647 145.564 48.6622 147.913 50.7261ZM145.98 44.7104C145.587 45.0823 145.022 45.1081 144.635 44.7011C144.13 44.1862 144.116 42.9552 144.729 42.4317C145.123 42.0598 145.748 42.1161 146.104 42.4679C146.581 42.9841 146.55 44.1747 145.98 44.7104ZM152.256 50.6808L149.331 48.0115C148.045 46.8386 147.636 47.7917 147.178 47.3738C147.03 47.2389 147.01 47.1124 147.171 46.6096C147.468 45.6617 147.764 45.0111 147.938 44.7908C148.098 44.5852 148.266 44.5492 148.532 44.7919L150.558 46.6671L153.483 49.3364C154.901 50.6307 155.269 49.6936 155.786 50.1655C156.007 50.3677 155.864 50.6432 155.541 50.9978L154.098 52.5785C153.775 52.9331 153.5 53.1155 153.263 52.8998C152.761 52.4415 153.674 51.975 152.256 50.6808ZM160.406 42.6402C161.596 41.0828 162.998 40.8953 163.983 41.6481C165.54 42.8381 165.438 45.2773 163.216 48.1855C161.856 49.9655 159.908 51.2961 158.494 50.2154C158.001 49.839 157.637 49.0317 157.877 48.0578C157.234 48.3721 156.425 48.5089 155.742 47.9867C155.297 47.6467 154.952 46.8796 155.318 45.6748C154.311 46.0379 153.321 45.885 152.51 45.2657C150.794 43.9543 150.752 41.4059 152.291 39.3595L152.4 39.2165C152.792 38.736 152.974 38.5976 153.216 38.2798C153.496 37.9142 153.53 37.2105 153.249 36.392C153.18 36.0873 153.143 35.807 153.313 35.5845C153.531 35.2985 153.972 35.1824 154.322 35.4495C154.942 35.9231 154.945 36.9072 154.585 37.74C155.511 37.5162 156.422 37.7084 157.137 38.2548C158.821 39.5419 159.036 41.8959 157.425 44.0376C156.976 44.6256 156.492 45.0613 155.989 45.3568C155.975 45.6727 156.039 46.0493 156.325 46.2679C157.072 46.8386 157.991 46.0308 158.684 45.1249C159.364 44.2349 159.981 43.1964 160.406 42.6402ZM152.659 40.1949C151.87 41.2278 152.026 42.6053 153.17 43.4796C154.438 44.4229 156.069 44.4615 156.98 43.2696C157.818 42.173 157.486 40.862 156.405 40.0363C155.201 39.1415 153.606 38.9553 152.659 40.1949ZM162.84 47.2941C164.03 45.7367 164.396 44.2039 163.411 43.4511C162.918 43.0747 162.108 42.8834 161.216 44.2155C160.774 44.8596 160.239 45.6588 159.462 46.6759C158.976 47.3116 158.803 48.2621 159.487 48.7842C160.393 49.4764 161.675 48.8198 162.84 47.2941ZM167.716 31.4642C167.83 31.2762 167.941 31.1327 168.129 31.247C168.556 31.5066 168.698 32.5055 168.231 33.2747C167.743 34.078 167.112 33.9991 166.198 33.6545C166.651 34.9124 166.413 36.3826 165.811 37.374C164.544 39.4593 162.655 39.9497 161.202 39.0671C159.561 38.0702 159.326 35.9149 160.592 33.8295C161.029 33.1116 161.388 32.6746 161.936 32.1185C160.361 31.6296 159.252 31.26 158.348 32.7471C157.756 33.7214 157.68 34.5407 157.654 35.5078C157.662 35.9572 157.239 36.0749 157.032 35.6451C156.683 34.8714 156.679 33.1838 157.624 31.6283C158.766 29.7481 160.392 29.7296 162.076 30.3082L166.263 31.7752C167.249 32.1168 167.519 31.789 167.716 31.4642ZM165.195 36.4616C165.911 35.2822 165.753 33.5012 164.918 33.181C164.483 33.0106 163.956 32.8773 163.11 32.5743C162.658 32.3934 161.819 33.4281 161.497 33.958C160.583 35.4622 160.813 36.7017 161.969 37.3803C163.111 38.004 164.416 37.7436 165.195 36.4616Z" fill="#1A1A1A"/>
</svg>
